<?xml version="1.0" encoding="UTF-8"?>
<svg width="158px" height="37px" viewBox="0 0 158 37" version="1.1" xmlns="http://www.w3.org/2000/svg" xmlns:xlink="http://www.w3.org/1999/xlink">
    <!-- Generator: sketchtool 44 (41411) - http://www.bohemiancoding.com/sketch -->
    <title>DE18D74E-BAC4-49DE-9DED-50E90EF51D69</title>
    <desc>Created with sketchtool.</desc>
    <defs>
        <polygon id="path-1" points="4.49107153 23.572459 4.49107153 0.155179442 0.0513519745 0.155179442 0.0513519745 23.572459 4.49107153 23.572459"></polygon>
    </defs>
    <g id="Page-1" stroke="none" stroke-width="1" fill="none" fill-rule="evenodd">
        <g id="Oman-Air-Landing-Page" transform="translate(-370.000000, -16.000000)">
            <g id="main-header">
                <g id="MainHeader-EN-Desktop-HD">
                    <g id="LOGO-EN-WHITE" transform="translate(370.000000, 16.000000)">
                        <path d="M72.1460736,32.6289377 C72.5249057,32.6289377 72.8658917,32.4674085 73.1040996,32.2097044 C73.1215384,32.1896525 73.1386063,32.1699719 73.1556742,32.14992 C74.4554282,30.6460274 75.2509386,28.6935663 75.2798797,26.5554394 L75.2828481,26.5554394 L75.2828481,11.1351554 C75.2828481,10.4158862 74.7003148,9.83252442 73.9812388,9.83178176 L73.9801257,9.83178176 L73.9786415,9.83178176 C73.2595654,9.83252442 72.6770322,10.4158862 72.6770322,11.1351554 L72.6770322,26.5201629 L72.674806,26.5201629 C72.6547698,28.0195996 72.0967252,29.3883275 71.1858213,30.442909 C71.1702376,30.4611043 71.155025,30.4792995 71.1394413,30.4967521 C70.9542922,30.7225217 70.8433511,31.0103036 70.8433511,31.3244501 C70.8433511,32.0452045 71.4266265,32.6289377 72.1460736,32.6289377" id="Fill-1" fill="#FFFFFF"></path>
                        <path d="M66.934516,18.12484 L66.934516,18.6502741 L66.9322898,18.6502741 C66.8877649,21.9963424 64.1650714,24.6951799 60.8116093,24.6951799 C57.4299482,24.6951799 54.6883316,21.9517826 54.6883316,18.5667245 C54.6883316,15.1842657 57.427722,12.4412397 60.8078989,12.4390118 L65.1067716,12.4390118 L65.9085896,12.4390118 C66.4751681,12.4390118 66.934516,12.8994628 66.934516,13.4668574 L66.934516,14.2681908 L66.934516,18.12484 Z M68.0773201,9.83152183 L66.934516,9.83152183 L60.8067858,9.83152183 C55.9880857,9.83412115 52.0825157,13.7438707 52.0825157,18.5667245 C52.0825157,23.3918062 55.991054,27.3026698 60.8116093,27.3026698 C63.1977694,27.3026698 65.35945,26.3442631 66.934516,24.7913547 L66.934516,25.9985535 C66.934516,26.7185653 67.5170492,27.3022985 68.2361253,27.3026698 L68.2372384,27.3026698 L68.2387226,27.3026698 C68.9577986,27.3022985 69.5399608,26.7185653 69.5399608,25.9985535 L69.5399608,18.6859219 L69.5399608,18.0891921 L69.5399608,12.4390118 L69.5399608,11.2960533 C69.5399608,10.486922 68.8854458,9.83152183 68.0773201,9.83152183 L68.0773201,9.83152183 Z" id="Fill-3" fill="#FFFFFF"></path>
                        <path d="M92.739885,18.12484 L92.739885,18.6502741 L92.7380298,18.6502741 C92.693134,21.9963424 89.9708114,24.6951799 86.6169783,24.6951799 C83.2353173,24.6951799 80.4937006,21.9517826 80.4937006,18.5667245 C80.4937006,15.1842657 83.2334621,12.4412397 86.613639,12.4390118 L90.9121406,12.4390118 L91.7135876,12.4390118 C92.2805372,12.4390118 92.7402561,12.8994628 92.7402561,13.4668574 L92.7402561,14.2681908 L92.7402561,18.12484 L92.739885,18.12484 Z M93.882318,9.83152183 L92.739885,9.83152183 L86.6121548,9.83152183 C81.7934547,9.83412115 77.8886268,13.7438707 77.8886268,18.5667245 C77.8886268,23.3918062 81.7964231,27.3026698 86.6169783,27.3026698 C89.0027673,27.3026698 91.164819,26.3442631 92.739885,24.7913547 L92.739885,25.9985535 C92.739885,26.7185653 93.3224183,27.3022985 94.0414943,27.3026698 L94.0426074,27.3026698 L94.0440916,27.3026698 C94.7627966,27.3022985 95.3457009,26.7185653 95.3457009,25.9985535 L95.3457009,18.6859219 L95.3457009,18.0891921 L95.3457009,12.4390118 L95.3457009,11.2960533 C95.3457009,10.486922 94.6908148,9.83152183 93.882318,9.83152183 L93.882318,9.83152183 Z" id="Fill-5" fill="#FFFFFF"></path>
                        <path d="M147.708797,18.12484 L147.708797,18.6502741 L147.706571,18.6502741 C147.662046,21.9963424 144.939353,24.6951799 141.585891,24.6951799 C138.20423,24.6951799 135.462613,21.9517826 135.462613,18.5667245 C135.462613,15.1842657 138.202003,12.4412397 141.58218,12.4390118 L145.881053,12.4390118 L146.682871,12.4390118 C147.249449,12.4390118 147.708797,12.8994628 147.708797,13.4668574 L147.708797,14.2681908 L147.708797,18.12484 Z M148.851601,9.83152183 L147.708797,9.83152183 L141.581067,9.83152183 C136.762367,9.83412115 132.856797,13.7438707 132.856797,18.5667245 C132.856797,23.3918062 136.765335,27.3026698 141.585891,27.3026698 C143.972051,27.3026698 146.133731,26.3442631 147.708797,24.7913547 L147.708797,25.9985535 C147.708797,26.7185653 148.291331,27.3022985 149.010407,27.3026698 L149.011891,27.3026698 L149.013004,27.3026698 C149.73208,27.3022985 150.314242,26.7185653 150.314242,25.9985535 L150.314242,18.6859219 L150.314242,18.0891921 L150.314242,12.4390118 L150.314242,11.2960533 C150.314242,10.486922 149.659356,9.83152183 148.851601,9.83152183 L148.851601,9.83152183 Z" id="Fill-7" fill="#FFFFFF"></path>
                        <path d="M50.7800531,9.83167036 L48.6287615,9.83167036 L48.6287615,5.59923371 C48.6287615,4.87959322 48.0458572,4.29660274 47.3267812,4.29548874 L47.3256681,4.29548874 L47.3241839,4.29548874 C46.6054789,4.29660274 46.0229456,4.87959322 46.0229456,5.59923371 L46.0229456,9.83167036 L43.8716541,9.83167036 C43.152578,9.83167036 42.5696738,10.4150322 42.5685607,11.1343013 L42.5685607,11.136158 L42.5685607,11.1369006 C42.5696738,11.8565411 43.152578,12.4391603 43.8716541,12.4391603 L46.0229456,12.4391603 L46.0229456,21.63927 L46.025914,21.63927 C46.0544841,23.7773969 46.8499944,25.729858 48.1501196,27.2337507 C48.1671874,27.2538026 48.1838842,27.2734831 48.2016942,27.2931637 C48.439531,27.5508678 48.780888,27.7127683 49.1597202,27.7127683 C49.8787962,27.7127683 50.4624426,27.1286638 50.4624426,26.408652 C50.4624426,26.0941342 50.3511305,25.805981 50.1663524,25.5802114 C50.1507687,25.5627588 50.1351851,25.5449349 50.1196014,25.5267397 C49.2086975,24.4721582 48.6510239,23.1030588 48.6309878,21.6036222 L48.6287615,21.6036222 L48.6287615,12.4391603 L50.7800531,12.4391603 C51.4995002,12.4391603 52.0820334,11.8565411 52.0827755,11.1369006 L52.0827755,11.136158 L52.0827755,11.1343013 C52.0820334,10.4150322 51.4995002,9.83167036 50.7800531,9.83167036" id="Fill-9" fill="#FFFFFF"></path>
                        <path d="M75.4407257,5.75742093 C75.4407257,6.56506699 74.7865817,7.21972446 73.9799401,7.21972446 C73.1729275,7.21972446 72.5187835,6.56506699 72.5187835,5.75742093 C72.5187835,4.94977488 73.1729275,4.29511741 73.9799401,4.29511741 C74.7865817,4.29511741 75.4407257,4.94977488 75.4407257,5.75742093" id="Fill-11" fill="#FFFFFF"></path>
                        <path d="M128.950411,9.83167036 L128.948927,9.83167036 L128.947442,9.83167036 C128.228366,9.83278435 127.645833,10.4161462 127.645833,11.1354153 L127.645833,18.572443 C127.643236,21.9545305 124.902732,24.6949571 121.522926,24.6949571 C118.192469,24.6949571 115.485359,22.0339954 115.404101,18.7202329 C115.404472,18.6916404 115.405956,18.6637905 115.406699,18.6348267 L115.408183,18.6348267 L115.408183,11.1354153 C115.408183,10.4161462 114.825649,9.83278435 114.106944,9.83167036 L114.10546,9.83167036 L114.104347,9.83167036 C114.104347,9.83167036 114.102492,9.83204169 114.101379,9.83204169 C114.101379,9.83204169 114.099895,9.83167036 114.098411,9.83167036 L114.097297,9.83167036 L114.095813,9.83167036 C113.376737,9.83278435 112.794204,10.4161462 112.794204,11.1354153 L112.794204,18.5672443 L112.794204,18.5720717 C112.794204,18.6266574 112.797172,18.6797578 112.798656,18.7336009 C112.710349,22.0410507 110.005836,24.6949571 106.67946,24.6949571 C103.300767,24.6949571 100.561377,21.9560158 100.556925,18.575785 L100.556925,11.1354153 C100.556925,10.4161462 99.9743913,9.83278435 99.2556863,9.83167036 L99.2542021,9.83167036 L99.253089,9.83167036 C98.5336419,9.83278435 97.9511086,10.4161462 97.9511086,11.1354153 L97.9511086,18.5672443 L97.9511086,18.5720717 C97.954077,23.3945541 101.860389,27.3028183 106.67946,27.3028183 C109.81475,27.3028183 112.562304,25.6485364 114.101379,23.1650712 C115.640083,25.6477937 118.387636,27.3028183 121.522926,27.3028183 C126.320848,27.3028183 130.213432,23.4287166 130.249794,18.6348267 L130.251649,18.6348267 L130.251649,11.1354153 C130.251649,10.4161462 129.668745,9.83278435 128.950411,9.83167036" id="Fill-13" fill="#FFFFFF"></path>
                        <g id="Group-17" transform="translate(152.868595, 4.140161)">
                            <mask id="mask-2" fill="white">
                                <use xlink:href="#path-1"></use>
                            </mask>
                            <g id="Clip-16"></g>
                            <path d="M2.23010049,23.1532257 C2.2126616,23.1331738 2.19559374,23.1134933 2.17852589,23.0934414 C0.878400755,21.5895487 0.0832614385,19.6370876 0.0543202968,17.4989607 L0.0513519745,1.4589244 C0.0513519745,0.739283921 0.633885212,0.156293436 1.35296127,0.155179442 C2.07426357,0.156293436 2.65716785,0.739283921 2.65716785,1.4589244 L2.65716785,17.4629415 C2.67943027,18.9631209 3.23710381,20.3318489 4.14800769,21.3864304 C4.16396242,21.4046256 4.17917507,21.4228209 4.19475876,21.4402734 C4.37990786,21.6656717 4.49121995,21.9538249 4.49121995,22.2679714 C4.49121995,22.9887259 3.90720255,23.572459 3.18812649,23.572459 C2.80892332,23.572459 2.46830835,23.4109298 2.23010049,23.1532257 Z" id="Fill-15" fill="#FFFFFF" mask="url(#mask-2)"></path>
                        </g>
                        <g id="Group-20" transform="translate(0.000000, 0.055514)" fill="#FFFFFF">
                            <path d="M32.6854947,0.315817457 L30.3501672,0.315817457 L17.8275578,0.315817457 C7.98014879,0.321758761 -0.000185520139,8.31169905 -0.000185520139,18.1668376 C-0.000185520139,28.0268034 7.98608543,36.0189717 17.8375759,36.0189717 C27.6078085,36.0189717 35.5384234,28.1582547 35.6686585,18.4100597 L35.6749662,18.4100597 L35.6749662,5.64479608 L35.6749662,3.30800684 C35.6749662,1.65558158 34.3366239,0.315817457 32.6854947,0.315817457 M33.0264807,5.51445872 L33.0264807,7.504053 L33.0264807,18.3740406 L33.0212861,18.3740406 C32.9103451,26.674414 26.15667,33.3687786 17.8375759,33.3687786 C9.44909725,33.3687786 2.64829999,26.5630145 2.64829999,18.1668376 C2.64829999,9.77511657 9.44390269,2.97158048 17.8286709,2.96638184 L28.4923685,2.96638184 L30.4807734,2.96638184 C31.887016,2.96638184 33.0264807,4.1074836 33.0264807,5.51445872" id="Fill-18"></path>
                        </g>
                        <path d="M18.4369914,18.8229061 L18.4369914,30.6928894 C24.8422598,30.3713163 29.9741179,25.2328308 30.3021175,18.8229061 L18.4369914,18.8229061 Z" id="Fill-21" fill="#71C8F0"></path>
                        <path d="M17.2381232,17.6230968 L17.2381232,5.65248265 C10.7634703,5.93877925 5.56742227,11.1422478 5.28802894,17.6230968 L17.2381232,17.6230968 Z" id="Fill-23" fill="#FFCC33"></path>
                        <path d="M30.3244541,17.6230968 L30.3244541,9.38102243 L30.3244541,7.73936578 C30.3244541,6.57969745 29.3849801,5.63800072 28.2254792,5.63800072 L26.5851102,5.63800072 L18.4370656,5.63800072 L18.4370656,17.6230968 L30.3244541,17.6230968 Z" id="Fill-25" fill="#973794"></path>
                    </g>
                </g>
            </g>
        </g>
    </g>
</svg>